PathFileType	4	(X/Y/Z)	./resultDataOpenSim/trcMotMarkerGrf/sub10/qtm-13-08.trc
DataRate	CameraRate	NumFrames	NumMarkers	Units	OrigDataRate	OrigDataStartFrame	OrigNumFrames
250.000000	250.000000	11	24	m	250.000000	265	529
Frame#	Time	L.Toe.Tip			R.Toe.Tip			L.Ankle.Lat			R.Ankle.Lat			L.Ankle.Med			R.Ankle.Med			L.Heel			R.Heel			L.Knee.Lat			R.Knee.Lat			L.Knee.Med			R.Knee.Med			L.Thigh.Upper			R.Thigh.Upper			L.ASIS			R.ASIS			V.Sacral			L.Acromium			R.Acromium			C7			L.Elbow			R.Elbow			L.Wrist.Lat			R.Wrist.Lat
		X1	Y1	Z1	X2	Y2	Z2	X3	Y3	Z3	X4	Y4	Z4	X5	Y5	Z5	X6	Y6	Z6	X7	Y7	Z7	X8	Y8	Z8	X9	Y9	Z9	X10	Y10	Z10	X11	Y11	Z11	X12	Y12	Z12	X13	Y13	Z13	X14	Y14	Z14	X15	Y15	Z15	X16	Y16	Z16	X17	Y17	Z17	X18	Y18	Z18	X19	Y19	Z19	X20	Y20	Z20	X21	Y21	Z21	X22	Y22	Z22	X23	Y23	Z23	X24	Y24	Z24

265	1.056	0.064012219	-0.0090585943	-0.073957803	0.2972144	0.088524085	0.14561731	-0.061717586	0.03086293	-0.084372584	0.16802528	0.14711433	0.13780857	-0.039091418	0.045759965	0.0014044619	0.21496124	0.14680359	0.058757693	-0.13174887	0.019062545	-0.036426618	0.12221585	0.12511132	0.083950698	0.17946631	0.32112297	-0.12876647	0.36283466	0.4729276	0.13479159	0.19318567	0.30564953	-0.007806412	0.39377447	0.47297935	0.0035640318	0.083328511	0.69095447	-0.21467131	0.066699077	0.71290145	0.16697768	0.1237074	0.80011593	-0.15171785	0.12251585	0.79981255	0.094289193	-0.081429587	0.81185446	-0.02909266	0.12806129	1.2592199	-0.1925033	0.086048084	1.2697762	0.12854714	0.021559704	1.2998168	-0.04971892	0.056794299	0.93532626	-0.29721526	-0.061101498	0.96471513	0.20525111	0.25212596	0.79024926	-0.4008753	-0.013751923	0.75873205	0.32647473
266	1.06	0.064003802	-0.0090755959	-0.073913943	0.31650938	0.087468886	0.14590559	-0.061414649	0.031516783	-0.084210906	0.18552253	0.14219352	0.1384559	-0.038367864	0.046317061	0.0013065461	0.23217818	0.14331306	0.059271125	-0.13145697	0.020095473	-0.036248525	0.14041674	0.11884814	0.084484116	0.18121316	0.32026603	-0.12885858	0.36976648	0.4750208	0.13441997	0.19541163	0.30464304	-0.0078569051	0.39994754	0.47566753	0.0033613493	0.086614717	0.69065546	-0.21430833	0.072862184	0.71412687	0.16776029	0.1279171	0.79987038	-0.151999	0.12805346	0.79996855	0.094452108	-0.075499479	0.8123247	-0.027906719	0.13359887	1.2595347	-0.19241103	0.091929146	1.2699194	0.12866372	0.027192583	1.3000774	-0.049468781	0.062921981	0.93540096	-0.2957974	-0.05721625	0.966111	0.20497144	0.26257658	0.79286243	-0.39978712	-0.013441698	0.75977872	0.32681153
267	1.064	0.063906839	-0.00909223	-0.073809548	0.33571893	0.086411252	0.14611181	-0.061111037	0.032159358	-0.084047698	0.20312015	0.13732653	0.13902885	-0.037813376	0.046821947	0.0012530182	0.24954575	0.13983	0.059840911	-0.1311771	0.02109769	-0.036053381	0.15884603	0.11271268	0.084706533	0.18298256	0.31944664	-0.12894086	0.37635691	0.4768356	0.13414058	0.19738196	0.30369098	-0.0078605021	0.40570429	0.47811381	0.0033758046	0.089779103	0.69039667	-0.21387409	0.078861296	0.71538395	0.16848672	0.13213267	0.79968058	-0.15227554	0.13368993	0.80024839	0.094734616	-0.069809203	0.81294318	-0.026716534	0.13908782	1.2599504	-0.19228456	0.097765079	1.2701336	0.12878302	0.032815905	1.3004061	-0.049217438	0.069725082	0.93554281	-0.29419746	-0.053458079	0.96755244	0.20477735	0.27282224	0.79562303	-0.39857156	-0.012983465	0.76091961	0.32704013
268	1.068	0.063799307	-0.0090962832	-0.073708072	0.35484037	0.085348723	0.14624003	-0.060803898	0.032787256	-0.083878148	0.2207853	0.13254397	0.13951452	-0.037400994	0.047281958	0.0013025477	0.26702807	0.13641509	0.060404792	-0.13090519	0.022078737	-0.035834125	0.17738939	0.10673525	0.084814447	0.18473682	0.31865671	-0.12903142	0.38284624	0.47842146	0.1339816	0.19895261	0.30281161	-0.0077660254	0.41102083	0.48031056	0.003622125	0.092833244	0.69018789	-0.21336606	0.084805052	0.71670088	0.16921377	0.13637469	0.79954953	-0.15252747	0.13940743	0.80064539	0.095096845	-0.064269568	0.8136797	-0.025443038	0.14455612	1.2604485	-0.19212544	0.10356804	1.270421	0.12891433	0.03842734	1.300807	-0.048972588	0.076672066	0.93579931	-0.29252348	-0.04971181	0.96902974	0.20465883	0.28292826	0.79848756	-0.39718712	-0.01235079	0.76214947	0.32717334
269	1.072	0.063731407	-0.0090840568	-0.073648694	0.37386146	0.084273114	0.14629268	-0.060489335	0.033396549	-0.083713593	0.2384756	0.1278599	0.1399103	-0.037020509	0.047725955	0.0014410869	0.2845303	0.13315519	0.060848049	-0.13062815	0.023039474	-0.035590639	0.19591404	0.10094722	0.085002477	0.18643645	0.31789237	-0.12913645	0.38944633	0.47982064	0.13394494	0.20021781	0.30199491	-0.0076086451	0.41607048	0.48225259	0.0040208822	0.095815106	0.69004253	-0.21280518	0.090849301	0.71811692	0.17001159	0.14065506	0.79946844	-0.15274759	0.14518728	0.80115398	0.095505226	-0.058811019	0.81452655	-0.024054881	0.15004962	1.2610164	-0.19195714	0.10935835	1.2707899	0.12906555	0.044035616	1.3012825	-0.048739472	0.083106894	0.93619066	-0.2909225	-0.04591241	0.97055877	0.20459804	0.2929416	0.80141158	-0.39563916	-0.011542363	0.76346222	0.3272164
270	1.076	0.063719561	-0.0090634091	-0.073637258	0.39276466	0.083167178	0.14626097	-0.060171344	0.033989157	-0.083569731	0.2561544	0.12326573	0.14024385	-0.036602495	0.048172339	0.0016267686	0.30198121	0.13008601	0.061133517	-0.13034079	0.023977274	-0.035326243	0.21442229	0.095369983	0.085250654	0.1880587	0.31715897	-0.12924945	0.39609059	0.48102745	0.13399416	0.20156641	0.30119534	-0.0075291243	0.42108311	0.48393273	0.0044670972	0.098779191	0.68997488	-0.21223485	0.097036287	0.71962616	0.17089236	0.14498415	0.79942833	-0.15293876	0.15101359	0.80177388	0.095935676	-0.053415975	0.81547562	-0.022626581	0.15559103	1.2616566	-0.19180137	0.11513833	1.2712459	0.12922898	0.049656178	1.3018374	-0.048510979	0.088881868	0.9367127	-0.28944298	-0.042078532	0.97217354	0.20453797	0.30284455	0.80437146	-0.39398222	-0.010588946	0.76484999	0.32716047
271	1.08	0.063751398	-0.0090409521	-0.073660485	0.4115462	0.082002201	0.14611801	-0.059868078	0.034566421	-0.083436703	0.27379766	0.11876082	0.14058021	-0.036140506	0.048631202	0.0018247805	0.31934126	0.12718546	0.06131959	-0.13004998	0.024888364	-0.035047487	0.23301773	0.09002419	0.085391511	0.18959395	0.31646882	-0.12936101	0.40255767	0.48200782	0.13409096	0.20326901	0.30038097	-0.0076226438	0.42614486	0.48533912	0.0049286999	0.10176471	0.68999519	-0.2116957	0.10322714	0.7211665	0.17178707	0.14938613	0.79944065	-0.15309544	0.15687253	0.80250215	0.096369466	-0.048111599	0.81650603	-0.021300854	0.16116534	1.2623833	-0.19166006	0.12088766	1.2717846	0.12939399	0.05530007	1.3024782	-0.048270896	0.094339932	0.93736547	-0.28804705	-0.038270065	0.97388998	0.20438835	0.31259395	0.80735829	-0.39228766	-0.0095140954	0.76630247	0.32699243
272	1.084	0.063789187	-0.0090142389	-0.073694573	0.43022289	0.080745055	0.14582505	-0.059608734	0.035118944	-0.083268736	0.29140132	0.11438522	0.1409724	-0.035660329	0.049107618	0.0020163636	0.3365765	0.12442166	0.061461322	-0.12976779	0.025768254	-0.034761626	0.25173857	0.084930152	0.085338256	0.19104238	0.31583744	-0.12946656	0.40874453	0.48273588	0.13423699	0.20513621	0.299573	-0.0078181013	0.43120954	0.48646224	0.0054351819	0.10477149	0.69010286	-0.21120018	0.10925952	0.72268097	0.17262033	0.15388587	0.79953386	-0.15319736	0.16276182	0.80333197	0.096793397	-0.042894245	0.81759023	-0.020149583	0.16674183	1.2632099	-0.19151897	0.12658951	1.2723978	0.12956669	0.060964934	1.3032054	-0.04801184	0.099944416	0.93812391	-0.28677858	-0.034543098	0.97569441	0.20410849	0.32216375	0.81038046	-0.39058817	-0.008313319	0.76781568	0.32671262
273	1.088	0.063805931	-0.0089795923	-0.073722336	0.44880057	0.079382633	0.14534714	-0.05940953	0.035638082	-0.083031421	0.3089985	0.11018773	0.14139187	-0.035204791	0.04958623	0.0021939947	0.35365025	0.12179465	0.061537024	-0.12950358	0.026612898	-0.034473493	0.27042766	0.080100354	0.085229825	0.19241399	0.31527876	-0.12956246	0.41469391	0.48319791	0.1344612	0.206783	0.29882055	-0.007978363	0.43623548	0.48729889	0.0060094744	0.10779932	0.69029496	-0.21072177	0.11511447	0.72416781	0.17338129	0.15848585	0.7997292	-0.15322845	0.16869582	0.80425855	0.097198995	-0.037719635	0.81871216	-0.019152511	0.17229911	1.2641405	-0.19135951	0.13225217	1.273087	0.12976593	0.066638056	1.3040148	-0.047742757	0.10607419	0.93887681	-0.28584888	-0.030926613	0.97757058	0.20373781	0.33156625	0.8134614	-0.3888484	-0.0069838274	0.76939814	0.32633346
274	1.092	0.063804772	-0.0089430677	-0.073740118	0.46723866	0.077948914	0.14465938	-0.059244361	0.036132784	-0.08276358	0.32664361	0.10617317	0.14175443	-0.034807798	0.050039258	0.0023584538	0.37053235	0.1193315	0.061491381	-0.12926224	0.027419243	-0.034185784	0.28882283	0.075532648	0.085346523	0.19371921	0.31480174	-0.12964089	0.42047918	0.48338076	0.13479106	0.20807418	0.29816065	-0.0080634684	0.4412599	0.48784946	0.0066270637	0.11089295	0.69058126	-0.21020432	0.12087945	0.72565887	0.17410016	0.16316849	0.80002699	-0.15319249	0.17469546	0.80528173	0.097577857	-0.032557465	0.81987354	-0.018277945	0.17783533	1.2651662	-0.19116908	0.13789888	1.2738616	0.1300016	0.07230989	1.3049071	-0.04747337	0.11282894	0.93951565	-0.28541326	-0.027390932	0.97949895	0.20329663	0.34084672	0.81661176	-0.38700037	-0.0055346051	0.77105951	0.32586722
275	1.096	0.06379767	-0.0089159226	-0.073749206	0.48547167	0.076514435	0.14374429	-0.059066462	0.036619269	-0.08254357	0.34433477	0.10232911	0.14203539	-0.034469813	0.050451556	0.0025144491	0.38722779	0.11703179	0.061374522	-0.12904502	0.02818529	-0.03390444	0.30679184	0.071220019	0.085839074	0.19495255	0.31441146	-0.12969772	0.42615422	0.48327212	0.13524713	0.20922213	0.29760007	-0.0081679023	0.44638896	0.48811926	0.0072065358	0.11410932	0.69098225	-0.209606	0.126625	0.7271734	0.17479146	0.16791714	0.80041602	-0.15310232	0.1807729	0.8064048	0.097921972	-0.027391528	0.82108762	-0.017496075	0.1833684	1.2662714	-0.1909483	0.14354176	1.2747278	0.13026357	0.077981147	1.3058857	-0.04720015	0.11994397	0.94008768	-0.28534635	-0.023832357	0.98143152	0.20273013	0.35004962	0.81982032	-0.38499611	-0.0039662167	0.77279879	0.32532694
